<?xml version="1.0" encoding="UTF-8" standalone="no"?>
<!-- Created with Inkscape (http://www.inkscape.org/) -->

<svg
   xmlns:dc="http://purl.org/dc/elements/1.1/"
   xmlns:cc="http://creativecommons.org/ns#"
   xmlns:rdf="http://www.w3.org/1999/02/22-rdf-syntax-ns#"
   xmlns:svg="http://www.w3.org/2000/svg"
   xmlns="http://www.w3.org/2000/svg"
   xmlns:sodipodi="http://sodipodi.sourceforge.net/DTD/sodipodi-0.dtd"
   xmlns:inkscape="http://www.inkscape.org/namespaces/inkscape"
   id="svg2"
   version="1.1"
   inkscape:version="0.48.4 r9939"
   width="956.6925"
   height="116.92912"
   xml:space="preserve"
   sodipodi:docname="museum-of-water-wordmark-grey.svg"><metadata
     id="metadata8"><rdf:RDF><cc:Work
         rdf:about=""><dc:format>image/svg+xml</dc:format><dc:type
           rdf:resource="http://purl.org/dc/dcmitype/StillImage" /><dc:title /></cc:Work></rdf:RDF></metadata><defs
     id="defs6"><clipPath
       clipPathUnits="userSpaceOnUse"
       id="clipPath16"><path
         d="m 0,93.543 765.354,0 L 765.354,0 0,0 0,93.543 z"
         id="path18" /></clipPath></defs><sodipodi:namedview
     pagecolor="#ffffff"
     bordercolor="#666666"
     borderopacity="1"
     objecttolerance="10"
     gridtolerance="10"
     guidetolerance="10"
     inkscape:pageopacity="0"
     inkscape:pageshadow="2"
     inkscape:window-width="1920"
     inkscape:window-height="1080"
     id="namedview4"
     showgrid="false"
     inkscape:zoom="1.4279722"
     inkscape:cx="414.2195"
     inkscape:cy="37.783936"
     inkscape:window-x="0"
     inkscape:window-y="0"
     inkscape:window-maximized="0"
     inkscape:current-layer="g10" /><g
     id="g10"
     inkscape:groupmode="layer"
     inkscape:label="museum-of-water-wordmark-grey"
     transform="matrix(1.25,0,0,-1.25,0,116.92913)"><g
       id="g12"
       style="fill:#1a1a1a"><g
         id="g14"
         clip-path="url(#clipPath16)"
         style="fill:#1a1a1a"><g
           id="g20"
           transform="translate(78.7085,76.9258)"
           style="fill:#1a1a1a"><path
             d="m 0,0 19.045,0 0,-0.702 c -6.582,-0.612 -7.902,-3.51 -7.633,-10.71 l 1.135,-32.38 c 0.354,-7.812 2.196,-10.183 8.077,-10.795 l 0,-0.702 -26.241,0 0,0.702 c 5.089,0.612 7.285,2.37 7.285,8.161 l 0,2.719 L 0,0 z m -19.22,-55.906 -0.438,0 -21.062,43.797 c -2.016,4.123 -3.859,6.752 -6.319,8.598 -2.195,1.579 -5.088,2.635 -7.284,2.809 l 0,0.702 20.096,0 21.062,-43.882 -6.055,-12.024 z m -38.698,0.617 0,0.702 c 3.336,0.264 6.055,1.319 7.987,3.601 2.19,2.544 4.033,7.548 4.999,11.759 l 0.876,0 c -0.174,-3.599 0.269,-9.13 2.022,-11.586 1.752,-2.455 4.74,-3.689 8.599,-3.774 l 0,-0.702 -24.483,0 z"
             style="fill:#1a1a1a;fill-opacity:1;fill-rule:nonzero;stroke:none"
             id="path22" /></g><g
           id="g24"
           transform="translate(163.7129,76.9258)"
           style="fill:#1a1a1a"><path
             d="m 0,0 0,-0.702 c -3.331,-0.264 -6.139,-1.319 -8.161,-3.864 -1.927,-2.365 -3.156,-10.177 -3.156,-13.249 l -1.056,0 c 0,3.072 -1.315,10.615 -3.247,13.075 -2.191,2.634 -5.79,3.774 -8.947,4.038 L -24.567,0 0,0 z m -53.531,-10.885 c 0,7.374 -1.927,9.481 -7.544,10.183 l 0,0.702 25.798,0 0,-0.702 c -5.527,-0.702 -7.544,-2.724 -7.544,-10.183 l 0,-25.712 c 0,-7.11 1.489,-11.407 6.403,-14.389 3.6,-2.282 8.515,-2.899 13.076,-2.989 l 0,-0.612 c -0.787,-0.438 -4.387,-1.404 -7.808,-1.404 -5.795,0 -10.794,0.966 -14.131,2.893 -6.054,3.426 -8.25,10.098 -8.25,18.084 l 0,24.129 z"
             style="fill:#1a1a1a;fill-opacity:1;fill-rule:nonzero;stroke:none"
             id="path26" /></g><g
           id="g28"
           transform="translate(199.2344,62.0928)"
           style="fill:#1a1a1a"><path
             d="m 0,0 c -2.021,7.284 -5.527,13.603 -12.637,14.743 l 0,0.792 c 3.336,0 9.918,-1.14 12.727,-2.106 L 0.787,0 0,0 z m -15.445,-41.073 0,0.792 c 5.616,0.442 10.092,3.689 10.092,10.62 0,5.706 -4.565,8.688 -12.462,12.901 -7.195,3.859 -14.833,8.51 -14.833,17.198 0,9.216 8.25,14.395 16.326,15.007 l 0,-0.792 c -4.829,-0.437 -7.458,-3.42 -7.458,-8.683 0,-6.493 5.352,-9.042 13.075,-13.344 7.543,-4.123 14.39,-7.897 14.39,-17.462 0,-11.582 -10.357,-15.71 -19.13,-16.237 m -17.288,2.723 -0.966,16.675 0.787,0 c 1.847,-8.862 7.986,-17.551 13.867,-18.691 l 0,-0.792 c -5.617,0.438 -11.408,1.758 -13.688,2.808"
             style="fill:#1a1a1a;fill-opacity:1;fill-rule:nonzero;stroke:none"
             id="path30" /></g><g
           id="g32"
           transform="translate(232.2065,22.3389)"
           style="fill:#1a1a1a"><path
             d="m 0,0 c 4.65,0.354 9.306,1.579 12.727,3.685 5.88,3.336 8.161,8.161 10.267,15.271 l 0.702,0 L 22.904,-0.702 0,-0.702 0,0 z m 12.463,38.439 0.702,0 0,-22.465 -0.702,0 C 10.71,23.87 8.166,26.325 0,26.853 l 0,0.702 c 8.166,0.528 10.71,2.898 12.463,10.884 M 11.412,50.902 C 9.042,52.217 3.6,53.531 -0.259,53.885 l 0,0.702 21.675,0 0.527,-17.029 -0.702,0 c -2.37,8.34 -4.651,10.884 -9.829,13.344 M -23.517,0 c 5.702,0.702 7.549,2.809 7.549,10.183 l 0,33.519 c 0,7.374 -1.847,9.481 -7.549,10.183 l 0,0.702 18.339,0 0,-55.289 -18.339,0 0,0.702 z"
             style="fill:#1a1a1a;fill-opacity:1;fill-rule:nonzero;stroke:none"
             id="path34" /></g><g
           id="g36"
           transform="translate(322.5791,76.9258)"
           style="fill:#1a1a1a"><path
             d="m 0,0 0,-0.702 c -3.336,-0.264 -6.145,-1.319 -8.161,-3.864 -1.933,-2.365 -3.162,-10.177 -3.162,-13.249 l -1.051,0 c 0,3.072 -1.319,10.615 -3.246,13.075 -2.196,2.634 -5.791,3.774 -8.952,4.038 L -24.572,0 0,0 z m -53.531,-10.885 c 0,7.374 -1.933,9.481 -7.549,10.183 l 0,0.702 25.802,0 0,-0.702 c -5.533,-0.702 -7.548,-2.724 -7.548,-10.183 l 0,-25.712 c 0,-7.11 1.494,-11.407 6.408,-14.389 3.595,-2.282 8.51,-2.899 13.075,-2.989 l 0,-0.612 c -0.792,-0.438 -4.391,-1.404 -7.812,-1.404 -5.791,0 -10.795,0.966 -14.126,2.893 -6.06,3.426 -8.25,10.098 -8.25,18.084 l 0,24.129 z"
             style="fill:#1a1a1a;fill-opacity:1;fill-rule:nonzero;stroke:none"
             id="path38" /></g><g
           id="g40"
           transform="translate(378.1904,76.9258)"
           style="fill:#1a1a1a"><path
             d="m 0,0 19.041,0 0,-0.702 c -6.578,-0.612 -7.896,-3.51 -7.633,-10.71 l 1.14,-32.38 c 0.353,-7.812 2.196,-10.183 8.076,-10.795 l 0,-0.702 -26.24,0 0,0.702 c 5.089,0.612 7.284,2.37 7.284,8.161 l 0,2.719 L 0,0 z m -19.219,-55.906 -0.438,0 -21.062,43.797 c -2.021,4.123 -3.864,6.752 -6.318,8.598 -2.196,1.579 -5.09,2.635 -7.285,2.809 l 0,0.702 20.095,0 21.063,-43.882 -6.055,-12.024 z m -38.703,0.617 0,0.702 c 3.336,0.264 6.055,1.319 7.986,3.601 2.196,2.544 4.039,7.548 5.004,11.759 l 0.877,0 c -0.174,-3.599 0.264,-9.13 2.016,-11.586 1.758,-2.455 4.74,-3.689 8.604,-3.774 l 0,-0.702 -24.487,0 z"
             style="fill:#1a1a1a;fill-opacity:1;fill-rule:nonzero;stroke:none"
             id="path42" /></g><g
           id="g44"
           transform="translate(410.9141,36.9326)"
           style="fill:#1a1a1a"><path
             d="m 0,0 c 0.782,0.14 1.608,0.598 2.296,1.195 3.35,2.843 5.322,10.098 5.322,15.057 0,2.111 -0.548,3.212 -1.189,3.536 l 0.089,0.318 c 3.993,-0.368 5.601,-3.58 5.601,-6.562 C 12.119,6.519 7.16,0.229 -0.089,-0.318 L 0,0 z M 5.602,19.788 C 5.049,19.693 4.501,19.419 3.993,19.096 0.185,16.526 -2.066,8.769 -2.066,3.536 -2.066,1.425 -1.469,0.319 -0.826,0 l -0.09,-0.318 c -3.993,0.363 -5.647,3.625 -5.647,6.607 0,6.976 5.049,13.265 12.254,13.817 L 5.602,19.788 z"
             style="fill:#1a1a1a;fill-opacity:1;fill-rule:nonzero;stroke:none"
             id="path46" /></g><g
           id="g48"
           transform="translate(429.501,56.5313)"
           style="fill:#1a1a1a"><path
             d="m 0,0 c 0.827,3.261 2.111,6.796 4.451,9.231 1.928,2.111 4.91,3.346 8.082,3.486 L 12.438,12.438 C 7.529,11.939 5.831,6.154 4.592,0.05 l 4.724,0 -0.642,-2.022 -4.451,0 -0.598,-2.938 c -1.424,-6.976 -2.568,-14.872 -6.886,-20.843 -2.066,-2.798 -5.005,-4.401 -8.399,-4.63 l 0.094,0.274 c 2.524,0.552 5.138,2.569 6.334,6.747 2.016,6.885 3.255,13.772 4.724,21.39 l -2.888,0 0.135,0.368 L 0,0 z"
             style="fill:#1a1a1a;fill-opacity:1;fill-rule:nonzero;stroke:none"
             id="path50" /></g><g
           id="g52"
           transform="translate(536.8125,76.9258)"
           style="fill:#1a1a1a"><path
             d="m 0,0 0,-0.702 c -3.685,-0.702 -6.582,-2.017 -9.127,-4.566 -2.454,-2.545 -4.561,-6.055 -6.582,-10.969 l -0.702,0.353 c 0.617,2.102 1.583,7.369 1.583,9.65 0,3.864 -3.161,5.178 -6.672,5.532 L -21.5,0 0,0 z m -25.185,-42.741 -5.088,-13.075 -1.494,0 -15.181,45.111 c -2.37,7.02 -4.567,9.475 -9.307,10.003 l 0,0.702 25.893,0 0,-0.702 c -3.601,-0.264 -5.528,-1.758 -5.528,-4.825 0,-1.32 0.523,-3.426 1.405,-6.408 l 9.3,-30.806 z m -30.453,0 -5.004,-13.075 -1.578,0 -14.918,44.493 c -2.633,7.459 -5.267,10.093 -10.091,10.621 l 0,0.702 26.24,0 0,-0.702 c -3.511,-0.264 -5.444,-1.668 -5.444,-4.74 0,-1.32 0.614,-3.511 1.579,-6.493 l 9.216,-30.806 z"
             style="fill:#1a1a1a;fill-opacity:1;fill-rule:nonzero;stroke:none"
             id="path54" /></g><g
           id="g56"
           transform="translate(555.0361,42.9629)"
           style="fill:#1a1a1a"><path
             d="m 0,0 -16.76,0 0.792,2.28 15.092,0 -7.459,20.271 4.74,12.024 1.932,0 17.288,-44.843 c 2.809,-7.109 6.14,-9.744 10.441,-10.356 l 0,-0.702 -27.291,0 0,0.702 c 4.297,0.264 6.319,1.579 6.319,4.915 0,1.842 -0.702,4.122 -1.847,7.021 L 0,0 z m -32.817,-21.326 0,0.702 c 3.157,0.528 5.352,1.579 7.543,3.858 2.808,2.809 4.302,5.707 5.795,9.392 l 0.703,-0.349 c -0.179,-0.792 -0.881,-3.774 -0.881,-6.144 0,-4.302 2.987,-6.404 7.374,-6.757 l 0,-0.702 -20.534,0 z"
             style="fill:#1a1a1a;fill-opacity:1;fill-rule:nonzero;stroke:none"
             id="path58" /></g><g
           id="g60"
           transform="translate(611.9736,76.9258)"
           style="fill:#1a1a1a"><path
             d="m 0,0 16.326,0 0.787,-17.113 -0.787,0 C 14.743,-11.059 11.761,-6.145 7.813,-3.685 5.094,-2.021 2.724,-1.056 0,-0.702 L 0,0 z m -3.774,-44.404 c 0,-7.374 1.931,-9.481 7.547,-10.183 l 0,-0.702 -25.801,0 0,0.702 c 5.532,0.702 7.549,2.724 7.549,10.183 l 0,44.404 10.705,0 0,-44.404 z m -14.48,43.702 c -2.719,-0.354 -5.089,-1.319 -7.808,-2.983 -3.948,-2.46 -6.935,-7.374 -8.514,-13.428 l -0.791,0 0.791,17.113 16.322,0 0,-0.702 z"
             style="fill:#1a1a1a;fill-opacity:1;fill-rule:nonzero;stroke:none"
             id="path62" /></g><g
           id="g64"
           transform="translate(657.4932,22.3389)"
           style="fill:#1a1a1a"><path
             d="m 0,0 c 4.655,0.354 9.306,1.579 12.727,3.685 5.88,3.336 8.161,8.161 10.267,15.271 l 0.701,0 L 22.909,-0.702 0,-0.702 0,0 z m 12.463,38.439 0.702,0 0,-22.465 -0.702,0 C 10.71,23.87 8.16,26.325 0,26.853 l 0,0.702 c 8.16,0.528 10.71,2.898 12.463,10.884 M 11.412,50.902 C 9.042,52.217 3.6,53.531 -0.264,53.885 l 0,0.702 21.679,0 0.528,-17.029 -0.702,0 c -2.37,8.34 -4.655,10.884 -9.829,13.344 M -23.517,0 c 5.706,0.702 7.548,2.809 7.548,10.183 l 0,33.519 c 0,7.374 -1.842,9.481 -7.548,10.183 l 0,0.702 18.343,0 0,-55.289 -18.343,0 0,0.702 z"
             style="fill:#1a1a1a;fill-opacity:1;fill-rule:nonzero;stroke:none"
             id="path66" /></g><g
           id="g68"
           transform="translate(713.1953,47.7876)"
           style="fill:#1a1a1a"><path
             d="m 0,0 0,0.354 c 1.14,0.174 2.021,0.348 3.161,0.702 5.881,1.842 7.022,7.02 7.022,13.513 0,8.773 -4.741,12.901 -12.289,13.867 l 0,0.702 c 1.578,0 6.144,-0.353 8.076,-0.702 C 16.321,26.942 21.241,21.854 21.241,14.479 21.241,7.458 16.675,3.162 10.53,1.23 l 0,-0.085 c 4.83,-8.603 11.587,-16.062 16.766,-21.505 2.454,-2.808 6.757,-4.914 9.475,-5.263 l 0,-0.702 c -2.37,-0.263 -7.458,-0.353 -11.845,-0.263 -6.583,0 -10.447,4.386 -14.221,9.39 C 7.11,-12.458 3.336,-6.583 0,0 m -6.842,-15.266 c 0,-7.459 2.894,-9.481 9.122,-10.183 l 0,-0.702 -27.465,0 0,0.702 c 5.706,0.702 7.548,2.809 7.548,10.183 l 0,33.519 c 0,7.374 -1.842,9.481 -7.548,10.183 l 0,0.702 18.343,0 0,-44.404 z"
             style="fill:#1a1a1a;fill-opacity:1;fill-rule:nonzero;stroke:none"
             id="path70" /></g></g></g></g></svg>